<?xml version="1.0" encoding="UTF-8" standalone="no"?>
<!-- Created with Inkscape (http://www.inkscape.org/) -->

<svg
   width="132.29167mm"
   height="132.29167mm"
   viewBox="0 0 132.29167 132.29167"
   version="1.1"
   id="svg1"
   xml:space="preserve"
   inkscape:export-filename="logo.png"
   inkscape:export-xdpi="96"
   inkscape:export-ydpi="96"
   sodipodi:docname="logo.svg"
   inkscape:version="1.4.3 (0d15f75042, 2025-12-25)"
   xmlns:inkscape="http://www.inkscape.org/namespaces/inkscape"
   xmlns:sodipodi="http://sodipodi.sourceforge.net/DTD/sodipodi-0.dtd"
   xmlns="http://www.w3.org/2000/svg"
   xmlns:svg="http://www.w3.org/2000/svg"><sodipodi:namedview
     id="namedview1"
     pagecolor="#ffffff"
     bordercolor="#000000"
     borderopacity="0.25"
     inkscape:showpageshadow="2"
     inkscape:pageopacity="0.0"
     inkscape:pagecheckerboard="0"
     inkscape:deskcolor="#d1d1d1"
     inkscape:document-units="mm"
     inkscape:zoom="0.73673543"
     inkscape:cx="397.02176"
     inkscape:cy="398.3791"
     inkscape:window-width="1896"
     inkscape:window-height="1030"
     inkscape:window-x="0"
     inkscape:window-y="0"
     inkscape:window-maximized="1"
     inkscape:current-layer="layer1"><inkscape:page
       x="0"
       y="0"
       width="132.29167"
       height="132.29167"
       id="page2"
       margin="0"
       bleed="0" /></sodipodi:namedview><defs
     id="defs1" /><g
     inkscape:label="Layer 1"
     inkscape:groupmode="layer"
     id="layer1"><path
       style="fill:#FFFFFF;stroke-width:1.6701"
       d="M 58.15809,129.79315 C 52.693732,129.08133 45.784908,126.77727 40.345036,123.8526 31.11767,118.89164 22.816182,110.0071 17.579704,99.48838 11.379343,87.033468 8.8095071,71.753929 10.635347,58.199118 14.713594,27.922721 32.973768,6.7039577 58.379028,2.719827 63.614455,1.8987894 64.742474,1.9657604 61.472186,2.9034878 57.151906,4.1422924 51.49971,7.1305679 47.293932,10.39947 c -4.494473,3.49328 -7.430373,6.747803 -10.869799,12.049484 -2.85779,4.405121 -6.167426,11.586298 -6.741758,14.628133 l -0.275356,1.458348 0.745759,-1.325642 c 1.822825,-3.240193 5.914682,-8.275342 9.791255,-12.048381 2.313788,-2.251995 4.278993,-4.022434 4.367123,-3.934303 0.08813,0.08818 -0.143745,0.887775 -0.515279,1.776969 -0.991847,2.373829 -1.871674,6.561002 -2.404766,11.44449 -0.583815,5.348143 -1.433361,7.620112 -4.623827,12.36565 -5.356557,7.967409 -6.525139,16.681036 -3.260196,24.3099 1.115467,2.606407 1.724955,2.72435 1.141813,0.220954 -0.569736,-2.44586 -0.143745,-10.585674 0.691258,-13.208833 0.974608,-3.06171 2.840075,-6.815859 4.425816,-8.90674 3.755855,-4.952296 4.898163,-8.071039 5.808052,-15.857277 1.178492,-10.084745 3.266891,-14.006472 9.001537,-16.903611 4.675172,-2.361921 10.416022,-2.36005 14.486731,0.005 6.744813,3.918171 4.125513,9.784512 -6.153991,13.782831 -1.397456,0.54355 -3.684189,1.42887 -5.081628,1.96736 -5.652216,2.17801 -9.263788,5.433551 -10.30102,9.285552 -0.736891,2.736592 -0.302622,3.512219 0.792282,1.415059 1.947129,-3.729499 4.978712,-5.657178 13.394341,-8.517006 2.076334,-0.705584 4.92909,-1.828776 6.339455,-2.495997 3.060357,-1.447776 6.987679,-5.221867 7.626793,-7.329215 l 0.458659,-1.512258 0.344776,2.572237 c 0.294689,2.198502 0.170333,3.097366 -0.855809,6.186332 -1.184802,3.566547 -1.191332,3.649785 -0.496721,6.329142 0.899332,3.469047 0.890614,3.602956 -0.245238,3.771937 -0.522006,0.07766 -1.160218,0.538907 -1.418248,1.024973 -0.258014,0.486066 -1.102433,1.877993 -1.876474,3.093158 -0.774041,1.215164 -1.541151,2.656811 -1.704703,3.203634 -0.224178,0.749558 -0.629995,0.994227 -1.649023,0.994227 -1.225553,0 -5.927292,-2.055909 -7.334634,-3.207175 -0.803184,-0.657034 -1.266503,-0.06296 -2.349028,3.012008 -2.343701,6.657417 0.649217,12.266278 9.843707,18.447483 4.356972,2.929071 4.964555,3.517948 5.80398,5.625396 1.107443,2.780298 -0.429449,6.418476 -3.474692,8.22534 -0.844452,0.501046 -0.844068,0.513088 0.02655,0.81075 8.53359,2.917613 14.008827,8.25313 15.89315,15.487561 2.199621,8.44491 -1.033458,17.50202 -7.457645,20.89177 -2.011969,1.06163 -2.715198,1.18574 -6.667989,1.17684 -4.13682,-0.01 -4.672571,-0.11891 -8.395715,-1.71641 -5.173367,-2.21983 -11.091105,-6.18726 -17.66085,-11.84035 -5.544861,-4.77123 -7.006517,-6.49688 -7.740188,-9.138154 -0.622576,-2.241306 -0.556619,-7.286906 0.179781,-13.752963 0.345811,-3.036441 0.843698,-8.10581 1.106418,-11.265254 0.262718,-3.159444 0.578502,-6.838089 0.701739,-8.174786 0.38188,-4.142014 2.339475,-7.313031 7.410189,-12.003439 2.443491,-2.260229 5.013846,-5.007843 5.711902,-6.105816 1.357494,-2.135189 3.205228,-7.574252 2.889028,-8.50428 -0.105049,-0.309169 -0.894366,0.533947 -1.753918,1.873567 -2.735987,4.264081 -6.643265,8.662288 -10.325133,11.622439 -5.700428,4.583037 -7.332366,8.013454 -7.922071,16.652578 -0.157607,2.308829 -0.666699,7.478822 -1.13133,11.488881 -1.609503,13.89103 -0.995081,20.456857 2.286925,24.438497 1.340601,1.62637 6.143266,5.60488 13.101568,10.85327 2.005033,1.51232 3.645513,2.83524 3.645513,2.93981 0,0.32172 -2.181913,-0.61838 -4.255185,-1.83339 -1.084085,-0.63532 -2.066758,-1.05943 -2.18372,-0.94247 -0.386124,0.38613 3.343618,3.44152 5.240241,4.29279 4.152769,1.86391 5.099465,2.18756 8.489683,2.90238 2.270818,0.47879 5.668426,0.7524 9.500436,0.76506 5.125301,0.0169 6.587039,-0.14764 10.379768,-1.16842 6.480403,-1.7442 11.171462,-4.5241 15.981352,-9.47043 4.418572,-4.54393 7.962772,-12.20911 8.429982,-18.231822 l 0.22566,-2.908991 -1.96733,-1.15292 c -3.22165,-1.888014 -3.19523,-1.80855 -3.47125,-10.438872 -0.28326,-8.856571 -0.56401,-9.869353 -3.653812,-13.181076 -2.004505,-2.14845 -3.460097,-5.546116 -2.68938,-6.27757 0.223092,-0.211718 2.09581,-0.915682 4.16159,-1.564365 4.558322,-1.431342 10.156852,-1.880065 14.348912,-1.150047 3.06348,0.533479 8.10374,2.075816 8.77151,2.6841 0.75048,0.683638 -0.66647,4.04144 -2.64593,6.270204 -3.06283,3.448589 -3.24092,4.140962 -3.2428,12.607731 -0.002,8.583426 -0.33893,9.606128 -3.70432,11.241172 l -1.94698,0.945911 -0.30757,3.282141 c -1.63133,17.408844 -15.796272,31.026154 -33.527233,32.231024 -4.490664,0.30516 -9.065918,-0.33286 -14.200713,-1.9803 -2.187313,-0.70178 -4.972287,-1.40532 -6.188821,-1.56343 -1.216552,-0.15816 -3.801552,-0.77185 -5.744452,-1.36385 l -3.532546,-1.07637 1.434151,1.21827 c 3.613501,3.06958 10.375603,6.2506 15.578247,7.32832 l 2.872211,0.59497 -3.093149,-0.0167 c -1.701247,-0.008 -4.186822,-0.15883 -5.523503,-0.33302 z M 79.634208,115.9537 c 2.16996,-1.09961 3.821237,-2.51953 2.930039,-2.51953 -0.246039,0 -2.392618,0.40026 -4.770188,0.88946 -4.733663,0.97399 -6.588542,0.85486 -9.030846,-0.57995 -0.850631,-0.49975 -4.728126,-4.01504 -8.616669,-7.81181 -3.888542,-3.79675 -7.91109,-7.604744 -8.938986,-8.462189 -1.776463,-1.481896 -1.847728,-1.63284 -1.440777,-3.05179 0.235469,-0.821037 1.148344,-4.981233 2.02861,-9.24488 1.372897,-6.649751 1.566271,-8.29996 1.359882,-11.604936 -0.351947,-5.635851 -0.984055,-6.190307 -1.322793,-1.160302 -0.267787,3.976423 -2.589053,14.201139 -4.687389,20.647 -0.504778,1.55062 -0.917778,3.073166 -0.917778,3.383421 0,0.310254 1.043942,1.416411 2.319873,2.458119 1.275929,1.041708 5.524138,5.052717 9.440454,8.913387 9.424346,9.29037 10.082733,9.68131 15.87437,9.42572 2.712893,-0.11975 4.076763,-0.42257 5.772198,-1.28172 z m -1.269126,-9.25821 c 4.934426,-4.99695 5.825758,-9.413529 2.484607,-12.311368 -1.863547,-1.616301 -5.012853,-1.146056 -6.494849,0.969776 l -0.710193,1.013951 -2.021372,-1.009508 c -2.401169,-1.199215 -3.737031,-0.999805 -5.567978,0.831142 -0.992231,0.992239 -1.269,1.671452 -1.269,3.114217 0,2.3665 1.070375,4.60528 2.798811,5.85392 2.632378,1.90165 6.708272,4.26858 7.377197,4.28403 0.371564,0.008 1.902811,-1.22719 3.402777,-2.74616 z M 94.669444,55.87925 c 0.58036,-3.789422 2.129194,-5.422412 6.691756,-7.055268 6.83371,-2.445694 17.03719,-0.7054 19.46897,3.320592 0.74693,1.236608 1.74782,5.61267 1.28374,5.61267 -0.094,0 -1.56338,-0.486484 -3.26522,-1.081072 -1.70183,-0.594573 -4.80036,-1.32773 -6.88563,-1.629233 -4.45422,-0.644023 -9.0389,-0.11674 -14.192092,1.632356 -1.736768,0.589478 -3.209813,1.073172 -3.273444,1.074859 -0.06363,0.0017 0.01336,-0.842014 0.17192,-1.874904 z M 99.779128,41.182092 C 94.57141,19.468411 81.6332,7.481222 64.407836,8.4107826 61.821103,8.5504029 59.108126,8.7820457 58.379028,8.9256074 57.397043,9.1189381 57.698062,8.8434386 59.540181,7.8630902 67.251606,3.7589211 77.703506,3.7104381 86.550356,7.7378328 97.327078,12.64375 106.15652,22.466874 111.84949,35.884185 c 0.97137,2.289356 3.33878,9.180754 3.19836,9.31022 -0.0595,0.05478 -1.30121,-0.09553 -2.75942,-0.33422 -2.3979,-0.392474 -7.36728,-0.222307 -10.34119,0.354078 -1.12004,0.217096 -1.17229,0.119913 -2.168112,-4.032138 z"
       id="path1"
       sodipodi:nodetypes="ssssssssscsssssssssssscssssssscssssssssssssssssccssssssscssssssssssssssscsssssssscscssssscssccssssssssssssssssssssscsssscscssssssscssscsssssss" /></g></svg>
