<svg xmlns="http://www.w3.org/2000/svg" viewBox="0 0 858.47046 253.70135" aria-hidden="true">
  <path fill="#000" d="M1171.9047 225.32161v-29h30v29h69.0834l-.2824-26.08473h-21.9353v-27h-47v-28h-30v-96h130v48h-31v-25.5h-67.934l-.283 48.2991 20 .2009v26h50v25h29v111h-130Zm152-87.5v-116.5h121v233h-121Zm92.0031 14.75c0-40.0125.2975-80.5125.6574-90l.6543-17.25h-67.3148v23h1v157h64Zm51.9969-14.75v-116.5h41l-.001 204.5 46.0133-1-.058-203.5 113.5184-.00013-.519 204.00013h57.0183v29h-98v-210h-31v210h-128Zm279 48.5v-68h64v-26h22v-48h-61v25h-25v-48h110v123h-85v81h39.0524l-.1506-27.25h46.0982v57h-110Zm131 39.5v-28.5h38v28h54v-81h-27v-25h27v-75h-54v25h-38v-48h129v98h-22v24h22v111h-129Zm-180-49v-19.5h27v39h-27Zm180-71.5v-13h38v26h-38Z" transform="translate(-1160.1694 -10.970869)"/>
</svg>
